<?xml version="1.0" standalone="no"?><!DOCTYPE svg PUBLIC "-//W3C//DTD SVG 1.1//EN" "http://www.w3.org/Graphics/SVG/1.1/DTD/svg11.dtd"><svg t="1542287491067" class="icon" style="" viewBox="0 0 1024 1024" version="1.1" xmlns="http://www.w3.org/2000/svg" p-id="10508" xmlns:xlink="http://www.w3.org/1999/xlink" width="200" height="200"><defs><style type="text/css"></style></defs><path d="M512 0C229.16129 0 0 229.16129 0 512s229.16129 512 512 512 512-229.16129 512-512.516129S794.83871 0 512 0z m-16 163.612903c0-30.967742 25.290323-56.774194 56.774194-56.774193s56.774194 25.290323 56.774193 56.774193v18.580645c0 30.967742-25.290323 56.774194-56.774193 56.774194s-56.774194-25.290323-56.774194-56.774194v-18.580645z m182.709677 625.032258l-175.483871 118.709678c-9.290323 6.709677-20.645161 9.806452-31.483871 9.806451-10.83871 0-21.16129-3.096774-30.451612-8.774193-19.096774-11.870968-28.903226-34.580645-25.806452-56.774194l60.387097-379.870968-67.096774 45.419355c-25.806452 17.548387-60.903226 10.83871-78.451613-14.967742-17.548387-25.806452-10.83871-60.903226 14.967742-78.451613l175.483871-118.709677c18.580645-12.903226 42.83871-12.903226 61.935483-1.032258 19.096774 11.870968 28.903226 34.580645 25.806452 56.774194l-60.387097 379.870967 67.096774-45.419355c25.806452-17.548387 60.903226-10.83871 78.451613 14.967742 17.548387 25.806452 10.83871 60.903226-14.967742 78.451613z" p-id="10509"></path></svg>