<?xml version="1.0" standalone="no"?><!DOCTYPE svg PUBLIC "-//W3C//DTD SVG 1.1//EN" "http://www.w3.org/Graphics/SVG/1.1/DTD/svg11.dtd"><svg t="1542286170622" class="icon" style="" viewBox="0 0 1024 1024" version="1.1" xmlns="http://www.w3.org/2000/svg" p-id="8971" xmlns:xlink="http://www.w3.org/1999/xlink" width="200" height="200"><defs><style type="text/css"></style></defs><path d="M959.682 773.097L662.704 243.902V73.14h37.676c20.705 0 37.67-16.472 37.67-36.57C738.05 16.477 721.085 0 700.38 0H323.653c-20.75 0-37.677 16.477-37.677 36.57 0 20.098 16.929 36.57 37.677 36.57h37.67v170.762L64.304 773.097C-20.998 911.14 44.83 1024 210.625 1024H813.4c165.755 0 231.637-112.86 146.282-250.903m-755.09-101.158l232.08-407.896V73.14h150.69v190.904L818.228 671.94H204.592" p-id="8972"></path></svg>